<svg width="18" height="22" viewBox="0 0 18 22" fill="none" xmlns="http://www.w3.org/2000/svg">
<path d="M16 21C16 21.5523 16.4477 22 17 22C17.5523 22 18 21.5523 18 21H16ZM13 14.3333V13.3333V14.3333ZM5 14.3333V13.3333V14.3333ZM1 18.7778H0H1ZM0 21C0 21.5523 0.447715 22 1 22C1.55228 22 2 21.5523 2 21H0ZM18 21V18.7778H16V21H18ZM18 18.7778C18 17.3658 17.4962 15.9933 16.5717 14.9661L15.0851 16.304C15.661 16.9439 16 17.8322 16 18.7778H18ZM16.5717 14.9661C15.6442 13.9355 14.3621 13.3333 13 13.3333V15.3333C13.7596 15.3333 14.5124 15.6677 15.0851 16.304L16.5717 14.9661ZM13 13.3333H5V15.3333H13V13.3333ZM5 13.3333C3.63788 13.3333 2.35585 13.9355 1.42828 14.9661L2.91487 16.304C3.48759 15.6677 4.24039 15.3333 5 15.3333V13.3333ZM1.42828 14.9661C0.503838 15.9933 0 17.3658 0 18.7778H2C2 17.8322 2.33902 16.9439 2.91487 16.304L1.42828 14.9661ZM0 18.7778V21H2V18.7778H0ZM12 5.44444C12 7.44847 10.5604 8.88889 9 8.88889V10.8889C11.8579 10.8889 14 8.34962 14 5.44444H12ZM9 8.88889C7.43965 8.88889 6 7.44847 6 5.44444H4C4 8.34962 6.14208 10.8889 9 10.8889V8.88889ZM6 5.44444C6 3.44042 7.43965 2 9 2V0C6.14208 0 4 2.53927 4 5.44444H6ZM9 2C10.5604 2 12 3.44042 12 5.44444H14C14 2.53927 11.8579 0 9 0V2Z" fill="#878787"/>
</svg>
