<svg width="22" height="22" viewBox="0 0 22 22" fill="none" xmlns="http://www.w3.org/2000/svg">
<path d="M1 0C0.447715 0 0 0.447715 0 1C0 1.55228 0.447715 2 1 2V0ZM4.63636 1L5.6186 0.812342C5.52854 0.340945 5.11629 0 4.63636 0V1ZM7.07273 13.7524L8.05523 13.5661L8.05496 13.5647L7.07273 13.7524ZM8.89091 15.2857V14.2857C8.88422 14.2857 8.87753 14.2858 8.87084 14.2859L8.89091 15.2857ZM17.7273 15.2857L17.7473 14.2859C17.7407 14.2858 17.734 14.2857 17.7273 14.2857V15.2857ZM19.5455 13.7524L20.528 13.9387L20.5293 13.9315L19.5455 13.7524ZM21 5.7619L21.9838 5.941C22.0369 5.64923 21.9578 5.34894 21.7678 5.12124C21.5778 4.89353 21.2966 4.7619 21 4.7619V5.7619ZM5.54545 4.7619C4.99317 4.7619 4.54545 5.20962 4.54545 5.7619C4.54545 6.31419 4.99317 6.7619 5.54545 6.7619V4.7619ZM8.18182 20.0476C8.18182 20.0496 8.18178 20.0415 8.1922 20.0306C8.19747 20.025 8.20678 20.0174 8.22147 20.0109C8.237 20.004 8.25515 20 8.27273 20V22C9.37042 22 10.1818 21.0815 10.1818 20.0476H8.18182ZM8.27273 20C8.2903 20 8.30846 20.004 8.32398 20.0109C8.33867 20.0174 8.34798 20.025 8.35326 20.0306C8.36368 20.0415 8.36364 20.0496 8.36364 20.0476H6.36364C6.36364 21.0815 7.17504 22 8.27273 22V20ZM8.36364 20.0476C8.36364 20.0456 8.36368 20.0537 8.35326 20.0647C8.34798 20.0702 8.33867 20.0778 8.32398 20.0843C8.30846 20.0912 8.2903 20.0952 8.27273 20.0952V18.0952C7.17504 18.0952 6.36364 19.0137 6.36364 20.0476H8.36364ZM8.27273 20.0952C8.25515 20.0952 8.237 20.0912 8.22147 20.0843C8.20678 20.0778 8.19747 20.0702 8.1922 20.0647C8.18178 20.0537 8.18182 20.0456 8.18182 20.0476H10.1818C10.1818 19.0137 9.37042 18.0952 8.27273 18.0952V20.0952ZM18.1818 20.0476C18.1818 20.0496 18.1818 20.0415 18.1922 20.0306C18.1975 20.025 18.2068 20.0174 18.2215 20.0109C18.237 20.004 18.2551 20 18.2727 20V22C19.3704 22 20.1818 21.0815 20.1818 20.0476H18.1818ZM18.2727 20C18.2903 20 18.3085 20.004 18.324 20.0109C18.3387 20.0174 18.348 20.025 18.3533 20.0306C18.3637 20.0415 18.3636 20.0496 18.3636 20.0476H16.3636C16.3636 21.0815 17.175 22 18.2727 22V20ZM18.3636 20.0476C18.3636 20.0456 18.3637 20.0537 18.3533 20.0647C18.348 20.0702 18.3387 20.0778 18.324 20.0843C18.3085 20.0912 18.2903 20.0952 18.2727 20.0952V18.0952C17.175 18.0952 16.3636 19.0137 16.3636 20.0476H18.3636ZM18.2727 20.0952C18.2551 20.0952 18.237 20.0912 18.2215 20.0843C18.2068 20.0778 18.1975 20.0702 18.1922 20.0647C18.1818 20.0537 18.1818 20.0456 18.1818 20.0476H20.1818C20.1818 19.0137 19.3704 18.0952 18.2727 18.0952V20.0952ZM1 2H4.63636V0H1V2ZM3.65413 1.18766L6.09049 13.94L8.05496 13.5647L5.6186 0.812342L3.65413 1.18766ZM6.09023 13.9387C6.21495 14.5965 6.5582 15.1968 7.07127 15.6295L8.36064 14.1006C8.20891 13.9726 8.09677 13.7852 8.05522 13.5661L6.09023 13.9387ZM7.07127 15.6295C7.58544 16.0631 8.23651 16.2991 8.91098 16.2855L8.87084 14.2859C8.69203 14.2895 8.51125 14.2276 8.36064 14.1006L7.07127 15.6295ZM8.89091 16.2857H17.7273V14.2857H8.89091V16.2857ZM17.7072 16.2855C18.3817 16.2991 19.0327 16.0631 19.5469 15.6295L18.2575 14.1006C18.1069 14.2276 17.9262 14.2895 17.7473 14.2859L17.7072 16.2855ZM19.5469 15.6295C20.06 15.1968 20.4032 14.5965 20.528 13.9387L18.563 13.5661C18.5214 13.7852 18.4093 13.9726 18.2575 14.1006L19.5469 15.6295ZM20.5293 13.9315L21.9838 5.941L20.0162 5.58281L18.5616 13.5733L20.5293 13.9315ZM21 4.7619H5.54545V6.7619H21V4.7619Z" fill="#878787"/>
</svg>
