<svg width="31" height="23" viewBox="0 0 31 23" fill="none" xmlns="http://www.w3.org/2000/svg">
<path d="M28 21C28.5523 21 29 21.4477 29 22C29 22.5523 28.5523 23 28 23L28 21ZM1 23C0.447715 23 -9.65645e-08 22.5523 0 22C9.65645e-08 21.4477 0.447715 21 1 21L1 23ZM14 12C14.5523 12 15 12.4477 15 13C15 13.5523 14.5523 14 14 14L14 12ZM1 14C0.447717 14 1.53665e-06 13.5523 1.57361e-06 13C1.55097e-06 12.4477 0.447717 12 1 12L1 14ZM13 3C13.5523 3 14 3.44772 14 4C14 4.55228 13.5523 5 13 5L13 3ZM1 5C0.447718 5 3.11026e-06 4.55228 3.14722e-06 4C3.12458e-06 3.44772 0.447718 3 1 3L1 5ZM28 23L1 23L1 21L28 21L28 23ZM14 14L1 14L1 12L14 12L14 14ZM13 5L1 5L1 3L13 3L13 5Z" fill="#878787"/>
<path d="M29.2929 16.7071C29.6834 17.0976 30.3166 17.0976 30.7071 16.7071C31.0976 16.3166 31.0976 15.6834 30.7071 15.2929L29.2929 16.7071ZM27.0821 11.6679C26.6916 11.2774 26.0584 11.2774 25.6679 11.6679C25.2774 12.0584 25.2774 12.6916 25.6679 13.0821L27.0821 11.6679ZM27.3333 7.66667C27.3333 10.7963 24.7963 13.3333 21.6667 13.3333V15.3333C25.9008 15.3333 29.3333 11.9008 29.3333 7.66667H27.3333ZM21.6667 13.3333C18.5371 13.3333 16 10.7963 16 7.66667H14C14 11.9008 17.4325 15.3333 21.6667 15.3333V13.3333ZM16 7.66667C16 4.53705 18.5371 2 21.6667 2V0C17.4325 0 14 3.43248 14 7.66667H16ZM21.6667 2C24.7963 2 27.3333 4.53705 27.3333 7.66667H29.3333C29.3333 3.43248 25.9008 0 21.6667 0V2ZM30.7071 15.2929L27.0821 11.6679L25.6679 13.0821L29.2929 16.7071L30.7071 15.2929Z" fill="#878787"/>
</svg>
