<svg width="199" height="46" viewBox="0 0 199 46" fill="none" xmlns="http://www.w3.org/2000/svg">
<path fill-rule="evenodd" clip-rule="evenodd" d="M45.0038 35.2013C38.7307 45.2059 23.5214 46.4236 11.8012 38.4126C0.870964 30.9318 -2.92678 18.051 2.69239 9.24628C8.27789 0.476984 21.631 -1.78109 33.1971 4.55313C45.5876 11.3285 51.2417 25.2326 45.0038 35.2013Z" fill="#180D03"/>
<path fill-rule="evenodd" clip-rule="evenodd" d="M42.9411 35.2718C37.3044 44.2883 23.6587 45.6296 12.4713 38.2536C1.30058 30.8787 -3.18484 17.5919 2.45211 8.57618C8.10603 -0.457778 21.7517 -1.79935 32.9219 5.57611C44.1096 12.9518 48.5955 26.2558 42.9411 35.2718Z" fill="#F38323"/>
<path fill-rule="evenodd" clip-rule="evenodd" d="M37.2696 6.93482C37.3044 6.9528 37.3216 6.98792 37.3383 7.00507C36.9779 6.35295 36.4621 5.59381 35.8436 4.99423C35.9465 4.44721 35.7405 3.75858 35.4312 3.31748C35.2764 3.10619 34.9324 2.71763 34.5375 2.64766C34.1254 2.59429 33.9877 2.71763 33.7986 2.89435C33.5753 3.08821 33.4894 3.60012 33.5926 4.09405C33.3687 4.12972 33.1454 4.18199 32.9394 4.19997C32.6471 4.19997 32.3896 4.11147 32.1491 4.02352C32.1833 3.9176 32.2005 3.81168 32.2005 3.68806C32.2522 2.96487 32.0629 2.22343 31.6335 1.62385C31.2898 1.12965 30.7742 0.72339 30.2072 0.653144C30.1041 0.405904 30.0526 0.317959 29.8975 0.159493C29.7261 -0.0169491 29.4509 0.000473893 29.4509 0.000473893L29.6227 0.670567C29.6227 0.670567 29.554 0.653144 29.7771 0.635445C29.8288 0.618298 29.863 0.635445 29.9147 0.653144C29.7601 0.670567 29.5885 0.72339 29.4339 0.811611C28.1105 1.48253 28.7807 3.51134 29.8975 4.42895C29.7431 4.55285 29.5715 4.69334 29.3822 4.81669C29.1586 4.95856 28.9008 4.95856 28.6433 4.97598C28.7465 4.21739 28.489 3.3172 28.0418 2.77073C27.5263 2.1529 26.7702 1.44713 25.9618 1.87026C26.0825 1.72977 26.0652 1.67668 26.0652 1.67668L25.756 0.988606C25.756 0.988606 25.5669 1.32324 25.5155 1.58818C25.481 1.81744 25.4982 1.97646 25.5327 2.1883C24.9654 2.87665 25.3261 3.9353 25.8589 4.58825C26.5291 5.39939 27.2855 5.69945 27.8352 5.73485C27.818 5.85819 27.8005 5.98209 27.7493 6.10571C27.6117 6.40522 27.3197 6.61734 27.0616 6.86458C27.0104 6.59936 26.8903 6.35267 26.7009 6.17595C26.3403 5.78822 25.3091 4.79982 24.7933 5.48788C24.1404 6.37037 25.2919 8.4874 26.0822 8.84029C25.9448 9.17575 25.7385 9.47526 25.5669 9.79302C25.5669 9.79302 25.5669 9.79302 25.5497 9.79302C25.258 9.35219 24.57 8.5582 23.9513 8.77004C21.9922 9.42244 23.7105 11.2402 24.7419 12.1047L25.0339 12.3166C25.0339 12.3166 25.2747 12.4045 25.412 12.2809C25.498 12.5282 25.5669 12.7751 25.6526 13.0224C25.6184 13.0044 25.6014 12.969 25.5839 12.969C25.6353 13.0752 25.6698 13.1988 25.704 13.3221C26.1506 14.734 26.5978 15.9157 27.8864 16.7097C28.5393 17.0982 29.3302 17.1508 30.0004 17.5042C30.43 17.7332 30.722 18.4921 30.9113 18.9332C31.1171 19.4271 31.3065 19.921 31.4781 20.4327C31.8045 21.4036 32.0106 22.4446 32.5951 23.2911C32.8874 23.7322 33.2825 24.0848 33.6777 24.4203C34.7263 25.2671 36.0836 25.3736 37.3211 24.9325C40.2426 23.8733 39.8819 20.3801 39.6239 17.786C39.5379 16.8156 39.3833 15.8803 39.16 14.9275C38.885 13.8692 38.4899 12.8102 38.335 11.7336C38.0775 10.0228 38.1634 8.38176 37.2696 6.93482Z" fill="#180D03"/>
<path fill-rule="evenodd" clip-rule="evenodd" d="M34.2107 2.6117C34.3486 2.57685 34.5547 2.7533 34.5547 2.7533C34.5547 2.7533 34.3828 2.38271 34.1937 2.27651C33.9877 2.18829 33.8678 2.18829 33.8678 2.18829L34.0049 2.71734C34.0046 2.71762 34.0733 2.64765 34.2107 2.6117Z" fill="#180D03"/>
<path fill-rule="evenodd" clip-rule="evenodd" d="M23.2466 9.10522C23.3153 8.99957 23.4874 8.91107 23.4874 8.91107L23.2641 8.39944C23.2641 8.39944 23.1434 8.47024 23.0575 8.78801C22.9888 9.10549 23.0922 9.33503 23.0922 9.33503C23.0922 9.33503 23.1946 9.17601 23.2466 9.10522Z" fill="#180D03"/>
<path fill-rule="evenodd" clip-rule="evenodd" d="M24.6384 5.59383C24.7077 5.45306 24.8445 5.32916 24.8445 5.32916L24.4149 4.85294C24.4149 4.85294 24.3289 4.99426 24.3637 5.38199C24.3976 5.77027 24.5697 5.89361 24.5697 5.89361C24.5697 5.71745 24.587 5.73515 24.6384 5.59383Z" fill="#180D03"/>
<path fill-rule="evenodd" clip-rule="evenodd" d="M35.7917 8.22301C35.4822 7.69396 35.1043 7.14666 34.7433 6.81147C34.4686 6.54709 34.1763 6.37037 33.9013 6.22905C33.7636 6.14055 33.609 6.05261 33.4374 5.98236C32.5437 5.62948 31.4781 5.6115 30.5504 5.85819C29.4161 6.17595 28.5051 6.81147 27.9381 7.87013C27.3022 9.08697 26.6834 10.4285 26.4944 11.8218C26.288 13.2862 26.89 14.5749 28.0068 15.4569C29.1072 16.3214 30.9283 16.1449 31.0487 14.4859C31.1174 13.7455 30.9116 12.7394 31.324 12.087C32.0629 10.9225 33.0768 12.087 33.5064 12.9159C34.0392 13.9391 34.6062 15.034 34.8985 16.1624C35.1907 17.2921 35.2936 18.4561 35.4485 19.6212C35.6026 20.6976 35.6893 22.6736 36.8748 23.1852C37.545 23.485 38.0258 22.3741 38.2151 21.8973C38.5419 21.0682 38.7134 20.2031 38.6962 19.3035C38.627 17.1685 37.8887 15.2273 37.5622 13.1454C37.2872 11.3285 36.8061 9.70507 35.7917 8.22301Z" fill="#F38323"/>
<path fill-rule="evenodd" clip-rule="evenodd" d="M32.4752 17.9625C31.9082 17.5217 31.1006 17.257 30.946 17.3806C30.8426 17.4511 31.3582 18.3685 31.599 18.7924C31.7196 19.0922 31.8395 19.3923 31.9424 19.7098C32.1832 20.3978 32.2522 21.2272 32.5789 21.8805C32.7677 22.2505 33.8845 23.6974 34.3489 22.974C34.9326 22.0923 34.469 20.6625 33.9187 19.7277C33.5405 18.9512 32.8704 18.2805 32.4752 17.9625Z" fill="#F38323"/>
<path fill-rule="evenodd" clip-rule="evenodd" d="M10.7183 20.7153C10.6836 20.7327 10.6666 20.7504 10.6496 20.7504C11.1307 20.2037 11.8012 19.5687 12.5228 19.1276C12.54 18.5803 12.8837 17.9448 13.2789 17.5919C13.4683 17.4163 13.8804 17.1162 14.2928 17.1339C14.7052 17.169 14.8258 17.3275 14.9629 17.5396C15.1523 17.7866 15.1178 18.2805 14.9112 18.7573C15.1178 18.8452 15.3239 18.9335 15.53 18.9866C15.8047 19.0568 16.08 19.0391 16.3375 19.004C16.32 18.8981 16.32 18.7744 16.3547 18.6693C16.4576 17.9453 16.8013 17.2752 17.3344 16.7807C17.7813 16.375 18.3828 16.0927 18.95 16.1458C19.1047 15.9339 19.1561 15.8634 19.3622 15.7224C19.5515 15.599 19.826 15.6695 19.826 15.6695L19.4998 16.3045C19.4998 16.3045 19.5855 16.2874 19.3622 16.2163C19.3282 16.1989 19.2765 16.1989 19.2245 16.2163C19.3791 16.2694 19.5171 16.3579 19.6714 16.4635C20.8057 17.4168 19.7229 19.2512 18.4512 19.8865C18.5719 20.0632 18.7092 20.2393 18.8639 20.3812C19.0529 20.5748 19.3107 20.6279 19.5515 20.7159C19.62 19.9393 20.0496 19.1281 20.6169 18.7045C21.2526 18.21 22.1291 17.6809 22.8337 18.2636C22.7306 18.122 22.7648 18.0692 22.7648 18.0692L23.2114 17.4688C23.2114 17.4688 23.3315 17.8402 23.3315 18.1038C23.3148 18.3336 23.2634 18.4923 23.1772 18.6862C23.5898 19.4628 23.0223 20.4332 22.3526 20.9625C21.5273 21.5981 20.7195 21.7214 20.187 21.6326C20.1703 21.7388 20.1703 21.8804 20.187 22.0212C20.2559 22.339 20.4965 22.6213 20.7028 22.9034C20.8057 22.657 20.9775 22.4449 21.2011 22.3033C21.6483 22.0209 22.851 21.2797 23.2116 22.074C23.6585 23.0619 22.0949 24.8797 21.2526 25.0558C21.3043 25.409 21.4419 25.7445 21.5448 26.0971H21.5618C21.94 25.7268 22.782 25.1089 23.3315 25.4444C25.1193 26.5382 23.0567 27.9143 21.871 28.5319L21.5273 28.6732C21.5273 28.6732 21.2865 28.726 21.1666 28.567C21.0462 28.7791 20.9086 29.0084 20.7882 29.2379C20.8227 29.2208 20.8399 29.2028 20.8569 29.1851C20.7882 29.2905 20.7367 29.3969 20.668 29.5194C19.9292 30.7905 19.2415 31.8491 17.8152 32.3256C17.1106 32.5729 16.3197 32.4495 15.5981 32.6431C15.1173 32.767 14.6871 33.4551 14.4124 33.8434C14.1029 34.2668 13.8109 34.7259 13.5361 35.1844C13.0203 36.0489 12.5907 37.0193 11.8515 37.7248C11.4734 38.0777 11.0092 38.3424 10.5454 38.5716C9.35967 39.1718 8.00208 38.9776 6.88504 38.2721C4.25579 36.578 5.33809 33.2427 6.12867 30.7905C6.42093 29.8552 6.76463 28.973 7.19427 28.0913C7.67535 27.1206 8.2938 26.1856 8.67199 25.1623C9.29179 23.5384 9.54957 21.9332 10.7183 20.7153Z" fill="#180D03"/>
<path fill-rule="evenodd" clip-rule="evenodd" d="M14.6192 17.1691C14.4988 17.0985 14.2413 17.2393 14.2413 17.2393C14.2413 17.2393 14.4988 16.9044 14.7051 16.8516C14.9112 16.8159 15.0488 16.8333 15.0488 16.8333L14.791 17.3101C14.7913 17.3101 14.7396 17.2393 14.6192 17.1691Z" fill="#180D03"/>
<path fill-rule="evenodd" clip-rule="evenodd" d="M23.951 25.938C23.8995 25.8327 23.7621 25.7085 23.7621 25.7085L24.0881 25.2497C24.0881 25.2497 24.1915 25.3379 24.2087 25.6734C24.2087 25.9909 24.0539 26.2024 24.0539 26.2024C24.0539 26.2024 24.0024 26.0265 23.951 25.938Z" fill="#180D03"/>
<path fill-rule="evenodd" clip-rule="evenodd" d="M23.332 22.2145C23.298 22.0563 23.1946 21.9147 23.1946 21.9147L23.7101 21.527C23.7101 21.527 23.7788 21.6855 23.6584 22.0561C23.5383 22.4272 23.3495 22.5149 23.3495 22.5149C23.3839 22.3387 23.3667 22.3387 23.332 22.2145Z" fill="#180D03"/>
<path fill-rule="evenodd" clip-rule="evenodd" d="M11.9038 22.2856C12.3164 21.8448 12.78 21.4036 13.2102 21.1564C13.5369 20.9623 13.8631 20.8389 14.1548 20.7681C14.327 20.715 14.4818 20.6622 14.6534 20.6268C15.6159 20.4855 16.647 20.6976 17.5065 21.1561C18.5549 21.7209 19.311 22.5325 19.6377 23.6968C20.0151 25.0381 20.3248 26.4674 20.2219 27.8789C20.1013 29.3427 19.2592 30.4725 17.9706 31.09C16.7159 31.6898 14.9629 31.1077 15.2035 29.4489C15.3066 28.7254 15.719 27.7907 15.4443 27.0669C14.9629 25.7436 13.7257 26.6612 13.1243 27.3847C12.4021 28.2666 11.6121 29.202 11.0965 30.2426C10.5809 31.2836 10.237 32.3956 9.82429 33.4899C9.44665 34.5124 8.94806 36.4181 7.69364 36.6654C6.97174 36.8061 6.7312 35.6064 6.64501 35.1128C6.5079 34.2303 6.52487 33.3309 6.7312 32.4667C7.24649 30.4019 8.36354 28.6724 9.11964 26.7141C9.79008 24.985 10.5807 23.5204 11.9038 22.2856Z" fill="#F38323"/>
<path fill-rule="evenodd" clip-rule="evenodd" d="M13.0725 32.5546C13.743 32.2371 14.5847 32.1489 14.6879 32.3076C14.7738 32.4135 14.0867 33.1901 13.7602 33.543C13.5708 33.8074 13.3987 34.0723 13.2274 34.355C12.8664 34.9899 12.6087 35.7662 12.1618 36.3481C11.9037 36.6659 10.4947 37.8127 10.2025 37.019C9.824 36.0306 10.5634 34.7427 11.3023 33.9313C11.8353 33.2778 12.6429 32.7487 13.0725 32.5546Z" fill="#F38323"/>
<path fill-rule="evenodd" clip-rule="evenodd" d="M54.5611 6.95404V13.2903C54.5611 13.2903 58.1209 13.2903 59.1901 13.2903C59.1901 14.7824 59.1901 36.9912 59.1901 36.9912H65.3316C65.3316 36.9912 65.3316 14.7824 65.3316 13.2903C66.4001 13.2903 69.9599 13.2903 69.9599 13.2903V6.95404H54.5611Z" fill="#180D03"/>
<path fill-rule="evenodd" clip-rule="evenodd" d="M64.5604 12.4985V36.1998H59.9618V12.4985H55.3323V7.74631H69.1886V12.4985H64.5604Z" fill="#F38323"/>
<path fill-rule="evenodd" clip-rule="evenodd" d="M78.7481 36.9916C82.9919 36.9916 86.4637 33.4575 86.4637 29.1012V14.8449C86.4637 10.4873 82.9919 6.95404 78.7481 6.95404V13.2904C79.6093 13.2904 80.2622 13.9602 80.2622 14.8449V29.1012C80.2622 29.985 79.6093 30.6548 78.7481 30.6548V36.9916ZM71.0629 14.8449V29.1012C71.0629 33.4575 74.5355 36.9916 78.7481 36.9916V30.6548C77.888 30.6548 77.2348 29.9854 77.2348 29.1012V14.8449C77.2348 13.9602 77.8876 13.2904 78.7481 13.2904V6.95404C74.5355 6.95404 71.0629 10.4873 71.0629 14.8449Z" fill="#180D03"/>
<path fill-rule="evenodd" clip-rule="evenodd" d="M78.7201 36.2255V36.2247C74.9211 36.19 71.8398 33.0354 71.8398 29.1269V14.8706C71.8398 10.9613 74.9211 7.80749 78.7201 7.77288V7.77203C78.7304 7.77203 78.7411 7.77246 78.7518 7.77246C78.762 7.77246 78.7727 7.77203 78.783 7.77203V7.77288C82.582 7.80749 85.6632 10.9613 85.6632 14.8706V29.1269C85.6632 33.0354 82.582 36.19 78.783 36.2247V36.2255C78.7727 36.2255 78.762 36.2251 78.7518 36.2251C78.7407 36.2251 78.7304 36.2255 78.7201 36.2255ZM78.7513 31.4724C80.0414 31.456 81.0042 30.4269 81.0042 29.1269V14.8706C81.0042 13.5702 80.041 12.5407 78.7513 12.5243C77.4613 12.5407 76.4981 13.5698 76.4981 14.8706V29.1269C76.4985 30.4269 77.4613 31.456 78.7513 31.4724Z" fill="#F38323"/>
<path fill-rule="evenodd" clip-rule="evenodd" d="M88.5792 6.95404V36.9912H94.7803C94.7803 36.9912 94.7803 14.7824 94.7803 13.2903C95.6116 13.2903 96.9465 13.2903 97.8073 13.2903C97.8073 14.7824 97.8073 36.9912 97.8073 36.9912H104.008C104.008 36.9912 104.008 14.7824 104.008 13.2903C104.691 13.2903 106.353 13.2903 106.353 13.2903V6.95404H88.5792Z" fill="#180D03"/>
<path fill-rule="evenodd" clip-rule="evenodd" d="M103.237 12.4985V36.1998H98.5777V12.4985H94.0091V36.1998H89.3509V7.74631H105.551V12.4985H103.237Z" fill="#F38323"/>
<path fill-rule="evenodd" clip-rule="evenodd" d="M107.648 6.95404V13.2903C107.648 13.2903 111.208 13.2903 112.277 13.2903C112.277 14.7824 112.277 36.9912 112.277 36.9912H118.419C118.419 36.9912 118.419 14.7824 118.419 13.2903C119.487 13.2903 123.048 13.2903 123.048 13.2903V6.95404H107.648Z" fill="#180D03"/>
<path fill-rule="evenodd" clip-rule="evenodd" d="M117.647 12.4985V36.1998H113.048V12.4985H108.419V7.74631H122.275V12.4985H117.647Z" fill="#F38323"/>
<path fill-rule="evenodd" clip-rule="evenodd" d="M140.772 6.89325V36.9916H146.943V6.89325H140.772ZM132.315 36.9916V30.6548C133.175 30.6548 133.827 29.9854 133.827 29.1012V25.1716C133.827 24.2886 133.175 23.5875 132.315 23.5875V17.2512C136.557 17.2512 140.029 20.7853 140.029 25.1716V29.1012C140.029 33.4575 136.557 36.9916 132.315 36.9916ZM132.315 17.2512V23.5875C132.315 23.5875 131.484 23.5875 130.801 23.5875C130.801 24.8052 130.801 29.1012 130.801 29.1012C130.801 29.985 131.454 30.6548 132.315 30.6548V36.9916C128.072 36.9916 124.599 33.4575 124.599 29.1012V6.89325H130.801C130.801 6.89325 130.801 15.8794 130.801 17.2512C131.484 17.2512 132.315 17.2512 132.315 17.2512Z" fill="#180D03"/>
<path fill-rule="evenodd" clip-rule="evenodd" d="M132.315 18.043C136.142 18.043 139.258 21.2411 139.258 25.1716V29.1012C139.258 33.0312 136.142 36.1998 132.315 36.1998V31.4471C133.591 31.4471 134.599 30.4122 134.599 29.1012V25.1716C134.599 23.831 133.59 22.7957 132.315 22.7957V18.043ZM141.543 36.1998V7.68552H146.171V36.1998H141.543ZM132.315 36.1998C128.487 36.1998 125.371 33.0312 125.371 29.1012V7.68552H130.03V18.043H132.315V22.7957H130.03V29.1012C130.03 30.4117 131.009 31.4471 132.315 31.4471V36.1998Z" fill="#F38323"/>
<path fill-rule="evenodd" clip-rule="evenodd" d="M148.638 6.95404V36.9912H154.811C154.811 36.9912 154.811 14.7824 154.811 13.2903C155.671 13.2903 157.036 13.2903 157.896 13.2903C157.896 13.9914 157.896 15.6359 157.896 15.6359H164.039V6.95361H148.638V6.95404Z" fill="#180D03"/>
<path fill-rule="evenodd" clip-rule="evenodd" d="M158.667 14.8449V12.4985H154.038V36.1998H149.41V7.74631H163.267V14.8449H158.667Z" fill="#F38323"/>
<path fill-rule="evenodd" clip-rule="evenodd" d="M174.734 6.95404C174.734 6.95404 174.734 11.5543 174.734 12.133C174.438 12.4078 172.925 13.9919 171.649 15.3007C171.649 12.8341 171.649 6.95404 171.649 6.95404H165.477V36.9912H171.649C171.649 36.9912 171.649 24.8968 171.649 24.2569C171.946 23.9826 173.489 22.3993 174.734 21.0892C174.734 24.105 174.734 36.9912 174.734 36.9912H180.877V6.95404H174.734Z" fill="#180D03"/>
<path fill-rule="evenodd" clip-rule="evenodd" d="M175.507 36.1998V19.1704L170.878 23.9218V36.1998H166.248V7.74631H170.878V17.2204L175.507 12.4373V7.74631H180.106V36.1998H175.507Z" fill="#F38323"/>
<path fill-rule="evenodd" clip-rule="evenodd" d="M191.83 6.95404C191.83 6.95404 191.83 17.4335 191.83 18.804C190.97 18.804 189.605 18.804 188.745 18.804C188.745 17.4331 188.745 6.95404 188.745 6.95404H182.543V36.9912H188.745C188.745 36.9912 188.745 26.5117 188.745 25.1104C189.605 25.1104 190.97 25.1104 191.83 25.1104C191.83 26.5117 191.83 36.9912 191.83 36.9912H197.973V6.95404H191.83Z" fill="#180D03"/>
<path fill-rule="evenodd" clip-rule="evenodd" d="M192.602 36.1998V24.3181H187.972V36.1998H183.315V7.74631H187.972V19.6267H192.602V7.74631H197.201V36.1998H192.602Z" fill="#F38323"/>
</svg>
