<svg width="22" height="22" viewBox="0 0 22 22" fill="none" xmlns="http://www.w3.org/2000/svg">
<path d="M20.9994 15.9738L20.4994 15.9614V15.9738H20.9994ZM20.9994 18.9846H20.4994L20.4994 18.9867L20.9994 18.9846ZM18.8072 20.9919L18.7533 21.489L18.7623 21.4898L18.8072 20.9919ZM10.1289 17.9108L10.4006 17.491L10.3967 17.4885L10.1289 17.9108ZM4.09534 11.8892L4.51712 11.6206L4.51473 11.617L4.09534 11.8892ZM1.00816 3.18795L0.510138 3.23304L0.510969 3.24085L1.00816 3.18795ZM3.0093 1.0001V0.500097L3.00883 0.500098L3.0093 1.0001ZM6.02608 1.0001V1.50012L6.03099 1.50007L6.02608 1.0001ZM8.03727 2.72629L8.53298 2.66078L8.53233 2.65618L8.03727 2.72629ZM8.74118 5.54641L8.27285 5.72152L8.27327 5.72265L8.74118 5.54641ZM8.28867 7.66402L8.64187 8.01793L8.64384 8.01594L8.28867 7.66402ZM7.01156 8.93859L6.65836 8.58469C6.4988 8.74393 6.46553 8.99024 6.57713 9.18611L7.01156 8.93859ZM13.0451 14.9602L12.7984 15.3951C12.9938 15.506 13.2393 15.4729 13.3983 15.3141L13.0451 14.9602ZM14.3222 13.6856L13.971 13.3297L13.969 13.3317L14.3222 13.6856ZM16.444 13.234L16.2684 13.7021L16.2695 13.7026L16.444 13.234ZM19.2698 13.9365L19.3395 13.4414L19.335 13.4408L19.2698 13.9365ZM20.4994 15.9738V18.9846H21.4994V15.9738H20.4994ZM20.4994 18.9867C20.5002 19.1964 20.4572 19.404 20.373 19.5963L21.2889 19.9976C21.4291 19.6776 21.5008 19.3319 21.4994 18.9826L20.4994 18.9867ZM20.373 19.5963C20.2888 19.7885 20.1652 19.9611 20.0102 20.1031L20.6855 20.8406C20.9432 20.6047 21.1488 20.3175 21.2889 19.9976L20.373 19.5963ZM20.0102 20.1031C19.8552 20.245 19.6721 20.3531 19.4726 20.4205L19.7924 21.368C20.1236 21.2562 20.4278 21.0766 20.6855 20.8406L20.0102 20.1031ZM19.4726 20.4205C19.2732 20.4878 19.0618 20.5128 18.8521 20.4939L18.7623 21.4898C19.1104 21.5212 19.4613 21.4797 19.7924 21.368L19.4726 20.4205ZM18.8611 20.4948C15.8443 20.1676 12.9465 19.1388 10.4006 17.491L9.85723 18.3305C12.5344 20.0632 15.5813 21.145 18.7533 21.4889L18.8611 20.4948ZM10.3967 17.4885C8.02893 15.987 6.02157 13.9835 4.5171 11.6206L3.67357 12.1577C5.25695 14.6446 7.3695 16.7529 9.86112 18.333L10.3967 17.4885ZM4.51473 11.617C2.85805 9.06469 1.82711 6.15892 1.50536 3.13505L0.510969 3.24085C0.849375 6.42124 1.93367 9.47728 3.67594 12.1614L4.51473 11.617ZM1.50612 3.14286C1.48727 2.93461 1.51206 2.72471 1.57895 2.5265L0.631452 2.20675C0.520098 2.53671 0.478797 2.88623 0.510199 3.23304L1.50612 3.14286ZM1.57895 2.5265C1.64584 2.3283 1.75337 2.1461 1.89475 1.99152L1.15686 1.31661C0.92176 1.57365 0.742807 1.87678 0.631452 2.20675L1.57895 2.5265ZM1.89475 1.99152C2.03614 1.83695 2.20829 1.71338 2.40026 1.62875L1.99689 0.713716C1.67805 0.854269 1.39196 1.05957 1.15686 1.31661L1.89475 1.99152ZM2.40026 1.62875C2.59225 1.54412 2.79982 1.50029 3.00977 1.5001L3.00883 0.500098C2.66034 0.500425 2.31572 0.573165 1.99689 0.713716L2.40026 1.62875ZM3.0093 1.5001H6.02608V0.500097H3.0093V1.5001ZM6.03099 1.50007C6.39797 1.49647 6.75359 1.62617 7.0316 1.86478L7.68289 1.10596C7.22084 0.709381 6.63023 0.494139 6.02117 0.500121L6.03099 1.50007ZM7.0316 1.86478C7.30958 2.10337 7.49096 2.43452 7.54221 2.7964L8.53233 2.65618C8.44697 2.0535 8.14497 1.50256 7.68289 1.10596L7.0316 1.86478ZM7.54158 2.7918C7.67386 3.79278 7.91918 4.77561 8.27285 5.72152L9.20952 5.37131C8.8823 4.49614 8.65534 3.58685 8.53296 2.66079L7.54158 2.7918ZM8.27327 5.72265C8.37482 5.99225 8.39678 6.28521 8.3366 6.56684L9.31452 6.77582C9.41474 6.30683 9.37814 5.819 9.2091 5.37018L8.27327 5.72265ZM8.3366 6.56684C8.27641 6.84849 8.13657 7.10714 7.93349 7.31209L8.64384 8.01594C8.9815 7.67516 9.2143 7.2448 9.31452 6.77582L8.3366 6.56684ZM7.93546 7.31011L6.65836 8.58469L7.36476 9.29249L8.64187 8.01792L7.93546 7.31011ZM6.57713 9.18611C8.05325 11.777 10.2026 13.922 12.7984 15.3951L13.2919 14.5253C10.8525 13.141 8.83292 11.1254 7.446 8.69107L6.57713 9.18611ZM13.3983 15.3141L14.6754 14.0395L13.969 13.3317L12.6919 14.6063L13.3983 15.3141ZM14.6734 14.0415C14.8788 13.8388 15.1382 13.699 15.421 13.6388L15.2128 12.6608C14.7434 12.7607 14.3125 12.9928 13.971 13.3298L14.6734 14.0415ZM15.421 13.6388C15.7037 13.5787 15.9978 13.6006 16.2684 13.7021L16.6197 12.7659C16.1704 12.5973 15.6822 12.5609 15.2128 12.6608L15.421 13.6388ZM16.2695 13.7026C17.2172 14.0555 18.2018 14.3003 19.2045 14.4323L19.335 13.4408C18.4069 13.3186 17.4956 13.0921 16.6185 12.7654L16.2695 13.7026ZM19.2 14.4316C19.5674 14.4834 19.9026 14.668 20.1421 14.9501L20.9044 14.3029C20.5061 13.8337 19.9491 13.5273 19.3395 13.4414L19.2 14.4316ZM20.1421 14.9501C20.3816 15.2322 20.5087 15.5921 20.4995 15.9614L21.4992 15.9863C21.5145 15.3712 21.3027 14.7721 20.9044 14.3029L20.1421 14.9501Z" fill="black"/>
</svg>
