<svg width="22" height="22" viewBox="0 0 22 22" fill="none" xmlns="http://www.w3.org/2000/svg">
<path d="M20.6464 21.3536C20.8417 21.5488 21.1583 21.5488 21.3536 21.3536C21.5488 21.1583 21.5488 20.8417 21.3536 20.6464L20.6464 21.3536ZM16.5202 15.8131C16.325 15.6179 16.0084 15.6179 15.8131 15.8131C15.6179 16.0084 15.6179 16.325 15.8131 16.5202L16.5202 15.8131ZM18.2778 9.88889C18.2778 14.5219 14.5219 18.2778 9.88889 18.2778V19.2778C15.0742 19.2778 19.2778 15.0742 19.2778 9.88889H18.2778ZM9.88889 18.2778C5.25583 18.2778 1.5 14.5219 1.5 9.88889H0.5C0.5 15.0742 4.70355 19.2778 9.88889 19.2778V18.2778ZM1.5 9.88889C1.5 5.25583 5.25583 1.5 9.88889 1.5V0.5C4.70355 0.5 0.5 4.70355 0.5 9.88889H1.5ZM9.88889 1.5C14.5219 1.5 18.2778 5.25583 18.2778 9.88889H19.2778C19.2778 4.70355 15.0742 0.5 9.88889 0.5V1.5ZM21.3536 20.6464L16.5202 15.8131L15.8131 16.5202L20.6464 21.3536L21.3536 20.6464Z" fill="#180D03"/>
</svg>
