<svg width="20" height="19" viewBox="0 0 20 19" fill="none" xmlns="http://www.w3.org/2000/svg">
<path d="M19.9994 14.2252V17.0854C20.0005 17.3509 19.9431 17.6138 19.831 17.8571C19.7188 18.1004 19.5542 18.3188 19.3478 18.4983C19.1415 18.6778 18.8978 18.8144 18.6325 18.8995C18.3672 18.9846 18.0861 19.0162 17.8072 18.9923C14.7128 18.6735 11.7404 17.671 9.1289 16.0653C6.69921 14.6014 4.63926 12.6484 3.09534 10.3447C1.39586 7.85744 0.338241 5.02558 0.00816212 2.07855C-0.0169672 1.8149 0.0160811 1.54917 0.105202 1.2983C0.194324 1.04742 0.337566 0.816879 0.525808 0.621362C0.71405 0.425846 0.943169 0.269634 1.19858 0.162672C1.45398 0.0557099 1.73008 0.000341737 2.0093 9.24365e-05H5.02608C5.5141 -0.00446153 5.98722 0.159389 6.35725 0.461103C6.72727 0.762817 6.96896 1.18181 7.03727 1.63998C7.1646 2.55533 7.40074 3.45408 7.74118 4.31909C7.87648 4.66035 7.90576 5.03122 7.82556 5.38777C7.74536 5.74431 7.55903 6.07159 7.28867 6.33082L6.01156 7.54166C7.44308 9.9286 9.52758 11.9049 12.0451 13.2622L13.3222 12.0513C13.5956 11.795 13.9408 11.6184 14.3169 11.5423C14.6929 11.4663 15.0841 11.494 15.444 11.6223C16.3564 11.9451 17.3043 12.169 18.2698 12.2897C18.7582 12.355 19.2044 12.5883 19.5233 12.9452C19.8422 13.302 20.0116 13.7576 19.9994 14.2252Z" fill="#F38323"/>
</svg>
