<svg width="20" height="26" viewBox="0 0 20 26" fill="none" xmlns="http://www.w3.org/2000/svg">
<path d="M18.5237 25C18.5237 25.2761 18.7475 25.5 19.0237 25.5C19.2998 25.5 19.5237 25.2761 19.5237 25H18.5237ZM19.5237 10C19.5237 9.72386 19.2998 9.5 19.0237 9.5C18.7475 9.5 18.5237 9.72386 18.5237 10H19.5237ZM9.52368 25C9.52368 25.2761 9.74754 25.5 10.0237 25.5C10.2998 25.5 10.5237 25.2761 10.5237 25H9.52368ZM10.5237 1C10.5237 0.723858 10.2998 0.5 10.0237 0.5C9.74754 0.5 9.52368 0.723858 9.52368 1H10.5237ZM0.523682 25C0.523682 25.2761 0.747539 25.5 1.02368 25.5C1.29982 25.5 1.52368 25.2761 1.52368 25H0.523682ZM1.52368 16C1.52368 15.7239 1.29982 15.5 1.02368 15.5C0.747539 15.5 0.523682 15.7239 0.523682 16H1.52368ZM19.5237 25V10H18.5237V25H19.5237ZM10.5237 25V1H9.52368V25H10.5237ZM1.52368 25V16H0.523682V25H1.52368Z" fill="#180D03"/>
</svg>
