<svg width="30" height="26" id="top-like" viewBox="0 0 30 26" fill="none" xmlns="http://www.w3.org/2000/svg">
<path d="M26.8646 3.12177L26.5141 3.47831L26.5142 3.47848L26.8646 3.12177ZM21.6539 1V1.5V1ZM16.4432 3.12177L16.7937 3.47839L16.7938 3.47831L16.4432 3.12177ZM15.0233 4.51714L14.6729 4.87376C14.8674 5.06493 15.1793 5.06493 15.3738 4.87376L15.0233 4.51714ZM13.6034 3.12177L13.253 3.47839L13.253 3.47839L13.6034 3.12177ZM3.18203 13.3632L2.83157 13.7198L3.18203 13.3632ZM15.0233 25L14.6729 25.3566C14.8674 25.5478 15.1793 25.5478 15.3738 25.3566L15.0233 25ZM26.8646 13.3632L26.5142 13.0065L26.5142 13.0066L26.8646 13.3632ZM27.2152 2.76524C26.4842 2.04654 25.6167 1.47687 24.6626 1.08836L24.2855 2.01452C25.1195 2.35413 25.8767 2.85168 26.5141 3.47831L27.2152 2.76524ZM24.6626 1.08836C23.7085 0.699858 22.6862 0.5 21.6539 0.5V1.5C22.5572 1.5 23.4515 1.67491 24.2855 2.01452L24.6626 1.08836ZM21.6539 0.5C20.6217 0.5 19.5993 0.699858 18.6452 1.08836L19.0223 2.01452C19.8564 1.67491 20.7506 1.5 21.6539 1.5V0.5ZM18.6452 1.08836C17.6911 1.47687 16.8236 2.04654 16.0927 2.76524L16.7938 3.47831C17.4311 2.85168 18.1883 2.35413 19.0223 2.01452L18.6452 1.08836ZM16.0927 2.76515L14.6729 4.16052L15.3738 4.87376L16.7937 3.47839L16.0927 2.76515ZM15.3738 4.16052L13.9539 2.76515L13.253 3.47839L14.6729 4.87376L15.3738 4.16052ZM13.9539 2.76515C12.4775 1.31428 10.477 0.500704 8.39273 0.500704V1.5007C10.2173 1.5007 11.9654 2.21308 13.253 3.47839L13.9539 2.76515ZM8.39273 0.500704C6.30851 0.500704 4.30794 1.31428 2.83157 2.76515L3.53249 3.47839C4.82004 2.21308 6.56816 1.5007 8.39273 1.5007V0.500704ZM2.83157 2.76515C1.35489 4.21632 0.523682 6.1864 0.523682 8.24249H1.52368C1.52368 6.4573 2.24523 4.74342 3.53249 3.47839L2.83157 2.76515ZM0.523682 8.24249C0.523682 10.2986 1.35489 12.2687 2.83157 13.7198L3.53249 13.0066C2.24523 11.7416 1.52368 10.0277 1.52368 8.24249H0.523682ZM27.215 13.7199C27.9463 13.0015 28.527 12.1481 28.9233 11.2082L28.0018 10.8197C27.6572 11.637 27.1519 12.3802 26.5142 13.0065L27.215 13.7199ZM28.9233 11.2082C29.3196 10.2682 29.5237 9.26046 29.5237 8.24249H28.5237C28.5237 9.12665 28.3464 10.0024 28.0018 10.8197L28.9233 11.2082ZM29.5237 8.24249C29.5237 7.22452 29.3196 6.21673 28.9233 5.27679L28.0018 5.6653C28.3464 6.48261 28.5237 7.35832 28.5237 8.24249H29.5237ZM28.9233 5.27679C28.527 4.33686 27.9463 3.48345 27.215 2.76507L26.5142 3.47848C27.1519 4.1048 27.6572 4.84797 28.0018 5.6653L28.9233 5.27679ZM2.83157 13.7198L14.6729 25.3566L15.3738 24.6434L3.53249 13.0066L2.83157 13.7198ZM15.3738 25.3566L27.2151 13.7198L26.5142 13.0066L14.6729 24.6434L15.3738 25.3566Z" fill="#180D03"/>
</svg>
