<svg width="28" height="28" viewBox="0 0 28 28" fill="#F38323" xmlns="http://www.w3.org/2000/svg">
<path d="M0 28C0.389548 26.8402 0.756513 25.7533 1.12348 24.6664C1.49044 23.5906 1.81789 22.4981 2.23567 21.4392C2.4502 20.9013 2.38245 20.4979 2.11146 19.9936C0.632309 17.2707 0.191951 14.3517 0.705702 11.315C1.14041 8.74328 2.24131 6.46855 4.01968 4.5356C6.94976 1.35883 10.6081 -0.165127 14.9327 0.0141617C18.0999 0.143025 20.9001 1.29159 23.2882 3.37022C25.5126 5.30318 26.9635 7.70677 27.6353 10.5642C28.1773 12.8669 28.1152 15.1585 27.449 17.4276C26.6022 20.3018 24.9819 22.6718 22.5712 24.4759C19.2233 26.9859 15.469 27.7647 11.3759 26.9747C10.1452 26.7394 8.97089 26.3024 7.86435 25.7085C7.68369 25.6132 7.53126 25.5908 7.33366 25.658C5.23349 26.3304 3.12767 26.9971 1.0275 27.6638C0.711348 27.7647 0.389548 27.8711 0 28ZM3.57368 24.4871C3.68659 24.459 3.7374 24.4478 3.78821 24.431C5.10364 24.0164 6.41907 23.5962 7.74014 23.1928C7.86435 23.1536 8.03372 23.1872 8.15227 23.2432C8.72248 23.5234 9.27011 23.8596 9.85725 24.1061C12.2736 25.1202 14.7633 25.2827 17.2812 24.5879C20.2847 23.7531 22.5881 21.977 24.1632 19.2933C25.5126 16.9962 25.9755 14.5141 25.5577 11.9032C25.027 8.5808 23.3108 5.96991 20.471 4.11539C18.0095 2.513 15.2996 1.96953 12.4091 2.42335C9.91935 2.81555 7.79095 3.9417 6.03517 5.7458C4.52779 7.29216 3.51722 9.11866 3.07686 11.2197C2.4502 14.2284 2.91314 17.0746 4.59553 19.6687C4.93427 20.1897 4.92298 20.5875 4.71974 21.1198C4.30761 22.2123 3.96322 23.3273 3.57368 24.4871Z" fill="white"/>
<path d="M21.3687 17.5732C21.3517 18.6546 20.838 19.4782 19.7992 19.9937C18.7773 20.4979 17.7385 20.6268 16.6715 20.2122C15.7118 19.8368 14.7407 19.4726 13.8148 19.0188C12.5954 18.4193 11.5961 17.5228 10.6815 16.5311C9.67094 15.433 8.81281 14.2116 8.1071 12.9061C7.60464 11.9817 7.29978 11.0012 7.40705 9.92546C7.51996 8.7825 8.05629 7.86925 8.95959 7.1801C9.14025 7.04564 9.41124 6.98401 9.64271 6.9616C9.94193 6.93919 10.2412 6.98401 10.5404 7.00642C10.7888 7.02883 10.9243 7.20252 11.009 7.40422C11.2291 7.94208 11.4267 8.47995 11.6356 9.02342C11.7768 9.3876 11.884 9.76859 12.0534 10.1216C12.2623 10.5586 12.1324 10.9228 11.8614 11.2589C11.63 11.5447 11.3872 11.8192 11.1219 12.0657C10.9017 12.273 10.8622 12.4859 11.009 12.7381C11.6582 13.8866 12.4486 14.9175 13.493 15.7523C14.1818 16.3014 14.944 16.7104 15.7343 17.0914C15.9658 17.2035 16.1916 17.1867 16.3723 16.9794C16.7618 16.5367 17.157 16.0997 17.5409 15.6515C17.7893 15.3658 17.9135 15.3097 18.2466 15.4778C19.212 15.9597 20.1662 16.4583 21.1259 16.9569C21.3517 17.0802 21.4082 17.2819 21.3687 17.5732Z" fill="white"/>
</svg>
