<svg width="25" height="25" viewBox="0 0 25 25" fill="none" xmlns="http://www.w3.org/2000/svg">
<path d="M0 25C0.34781 23.9645 0.675458 22.994 1.00311 22.0235C1.33075 21.0631 1.62312 20.0876 1.99613 19.1421C2.18768 18.6619 2.12719 18.3017 1.88523 17.8515C0.564562 15.4203 0.171385 12.814 0.630091 10.1026C1.01823 7.8065 2.00117 5.77549 3.589 4.04964C6.20514 1.21324 9.47153 -0.147435 13.3327 0.0126444C16.1606 0.127701 18.6608 1.15321 20.793 3.00913C22.7791 4.73498 24.0745 6.88104 24.6744 9.4323C25.1583 11.4883 25.1028 13.5343 24.508 15.5603C23.7519 18.1266 22.3052 20.2426 20.1528 21.8534C17.1637 24.0946 13.8116 24.7899 10.1571 24.0845C9.05819 23.8744 8.00972 23.4842 7.02174 22.954C6.86044 22.8689 6.72433 22.8489 6.54791 22.909C4.67276 23.5093 2.79257 24.1046 0.917413 24.6999C0.635132 24.7899 0.34781 24.8849 0 25ZM3.19078 21.8634C3.2916 21.8384 3.33696 21.8284 3.38233 21.8134C4.55682 21.4432 5.73131 21.0681 6.91084 20.7079C7.02174 20.6729 7.17296 20.7029 7.27882 20.7529C7.78793 21.003 8.27688 21.3032 8.80112 21.5233C10.9585 22.4287 13.1815 22.5738 15.4297 21.9535C18.1113 21.2081 20.168 19.6223 21.5743 17.2262C22.7791 15.1751 23.1924 12.959 22.8194 10.6279C22.3456 7.66143 20.8132 5.33027 18.2777 3.67445C16.0799 2.24375 13.6604 1.75851 11.0795 2.16371C8.85656 2.51388 6.95621 3.51938 5.38854 5.13017C4.04267 6.51086 3.14038 8.14166 2.7472 10.0176C2.18768 12.7039 2.60102 15.2452 4.10315 17.5613C4.4056 18.0266 4.39552 18.3817 4.21405 18.857C3.84608 19.8324 3.53859 20.8279 3.19078 21.8634Z" fill="#43D854"/>
<path d="M19.0792 15.6904C19.064 16.6559 18.6053 17.3912 17.6778 17.8515C16.7655 18.3017 15.838 18.4167 14.8853 18.0466C14.0284 17.7114 13.1613 17.3862 12.3347 16.981C11.2459 16.4458 10.3537 15.6454 9.53706 14.7599C8.63477 13.7795 7.86858 12.6889 7.23849 11.5233C6.78986 10.6979 6.51766 9.8225 6.61344 8.86202C6.71425 7.84152 7.19312 7.02611 7.99964 6.41081C8.16094 6.29075 8.4029 6.23572 8.60957 6.21571C8.87673 6.1957 9.14388 6.23572 9.41104 6.25573C9.63284 6.27574 9.75381 6.43082 9.82942 6.61091C10.026 7.09114 10.2024 7.57138 10.3889 8.05662C10.515 8.38178 10.6107 8.72195 10.762 9.03711C10.9485 9.4273 10.8325 9.75246 10.5906 10.0526C10.3839 10.3077 10.1672 10.5529 9.93024 10.773C9.73365 10.9581 9.69837 11.1482 9.82942 11.3733C10.4091 12.3988 11.1148 13.3192 12.0473 14.0646C12.6623 14.5548 13.3428 14.92 14.0485 15.2602C14.2552 15.3602 14.4568 15.3452 14.6181 15.1601C14.9659 14.7649 15.3188 14.3747 15.6616 13.9746C15.8833 13.7194 15.9942 13.6694 16.2916 13.8195C17.1536 14.2497 18.0055 14.6949 18.8624 15.1401C19.064 15.2502 19.1145 15.4303 19.0792 15.6904Z" fill="#43D854"/>
</svg>
